<?xml version="1.0" encoding="utf-8"?>
<svg viewBox="0 0 500 500" xmlns="http://www.w3.org/2000/svg">
  <g id="freepik--background-simple--inject-6" transform="matrix(1.159705, 0, 0, 1.177972, -32.914204, 17.040251)" style="">
    <path d="M58.74,97.09l2.43-4c20.52-33.81,57.61-54.19,96.72-51.71a100.9,100.9,0,0,1,15,2.05c35.56,7.61,66.5,34.5,79.32,68.94,7.54,20.25,9.65,43.57,24,59.65,18.63,20.92,50.26,21.58,78.06,20.71s59.45-.13,78,20.88c11.61,13.15,15.3,31.86,14.37,49.47-2.48,46.64-35,88.35-76.31,109.08s-90,22.58-135.24,13.46c-63.36-12.77-123.63-47.85-159.85-102S29.76,155.57,58.74,97.09Z" style="fill:#ebebeb"/>
    <circle cx="70.96" cy="369.59" r="25.08" style="fill:#ebebeb"/>
  </g>
</svg>