<?xml version="1.0" encoding="utf-8"?>
<!-- Generator: Adobe Illustrator 24.1.2, SVG Export Plug-In . SVG Version: 6.00 Build 0)  -->
<svg version="1.1" id="Camada_1" xmlns="http://www.w3.org/2000/svg" xmlns:xlink="http://www.w3.org/1999/xlink" x="0px" y="0px"
	 viewBox="0 0 595.28 841.89" style="enable-background:new 0 0 595.28 841.89;" xml:space="preserve">
<style type="text/css">
	.st0{fill:#666666;}
</style>
<path class="st0" d="M478.87,365.05c-0.11,98.34-77.15,175.86-170.64,180.93c-106.01,5.74-187.3-76.36-191.63-171.71
	c-4.77-105.09,76.68-184.83,170.4-189.98C392.5,178.49,478.79,261.96,478.87,365.05z M281.45,379.99
	c4.25-16.26,8.19-31.37,12.15-46.47c3.55-13.51,7.17-27.01,10.67-40.54c1.34-5.17,0.85-5.81-4.57-5.81c-3.65,0-7.32,0.23-10.96,0.61
	c-40.92,4.19-75.61,42.3-68.13,89.49c6.65,41.96,42.82,69.04,84.92,65.3c41.18-3.66,73.19-41.28,70.02-82.15
	c-0.29-3.73-1.39-5.05-5.24-4c-18.29,4.98-36.63,9.82-54.95,14.67C304.46,373.99,293.54,376.83,281.45,379.99z"/>
</svg>
