<?xml version="1.0" encoding="utf-8"?>
<svg version="1.1" id="Camada_1" x="0px" y="0px" viewBox="0 0 595.28 841.89" style="enable-background:new 0 0 595.28 841.89;" xmlns="http://www.w3.org/2000/svg">
  <style type="text/css">
	.st0{fill:#818181;}
</style>
  <g>
    <path class="st0" d="M547.25,410.63c-0.7-0.06-1.4-0.18-2.1-0.18c-6.38-0.01-12.76,0.06-19.14-0.04c-1.77-0.03-2.4,0.49-2.33,2.34 c0.11,2.86,0.02,5.73,0.02,8.59c0,16.65,0.01,33.3,0.01,49.95c0,2.79,0,2.79-2.64,2.79c-7.41,0-14.82-0.06-22.23,0.04 c-1.91,0.03-2.54-0.49-2.53-2.56c0.08-19.58,0.02-39.16,0.09-58.75c0.01-1.94-0.49-2.59-2.36-2.41c-1.72,0.17-3.48,0.09-5.21,0.02 c-1.39-0.06-1.96,0.1-1.43,1.86c1.7,5.61,2.65,11.36,2.48,17.27c-0.32,10.61-3.45,20.21-9.75,28.62 c-6.4,8.54-14.55,14.64-24.6,17.61c-7.96,2.35-16.12,2.53-24.24,0.57c-11.09-2.67-19.92-8.97-26.96-18.1 c-1.58-2.05-1.48-2.06-2.68,0.18c-4.74,8.82-11.81,14.09-21.65,15.27c-2.64,0.32-5.26,0.36-7.89,0.37c-14.37,0-28.74,0-43.1,0 c-3.09,0-3.1,0-3.11-3.29c-0.01-4.8,0.01-9.59-0.02-14.39c0-0.53,0.3-1.35-0.45-1.54c-0.54-0.14-0.79,0.54-1.08,0.98 c-6.48,9.56-14.93,16.42-25.84,19.75c-8.11,2.48-16.31,2.66-24.59,0.74c-11.88-2.75-20.92-9.78-28.11-19.62 c-3.23-4.43-5.61-9.36-6.95-14.77c-0.16-0.63-0.25-1.46-0.94-1.61c-0.76-0.16-0.72,0.78-1.02,1.23c-0.51,0.76-0.91,1.6-1.43,2.36 c-1.83,2.69-1.83,2.66,0.08,5.26c5.78,7.89,11.52,15.82,17.35,23.67c0.76,1.03,0.62,1.55-0.27,2.24 c-6.58,5.1-13.16,10.22-19.71,15.35c-0.92,0.72-1.37,0.42-2-0.45c-4.26-5.91-8.58-11.77-12.88-17.65 c-2.52-3.45-5.06-6.87-7.53-10.36c-0.6-0.85-1.24-1.18-2.25-1.17c-6.31,0.06-12.63,0.1-18.94,0.05c-1.58-0.01-2.19,0.5-2.14,2.18 c0.09,3.13-0.01,6.26,0.03,9.39c0.02,1.2-0.41,1.65-1.58,1.65c-7.99-0.03-15.98-0.05-23.97,0.02c-1.79,0.01-1.73-1.05-1.73-2.33 c0.01-21.85,0.01-43.69,0.01-65.54c0-4.95,0.01-4.95-4.84-4.95c-2.73,0-2.73,0-2.73-2.87c0-4.6,0.06-9.19-0.03-13.79 c-0.04-1.7,0.41-2.35,2.16-2.34c16.17,0.06,32.34,0.02,48.52,0.04c9.67,0.01,18.58,2.39,26.03,9.16 c4.61,4.19,8.15,9.18,10.46,15.07c0.28,0.73,0.6,1.44,1.01,2.41c8.75-17.25,21.62-28.33,40.69-29.86 c19.01-1.53,33.36,7.22,44.21,23c0.71-1.01,0.5-1.83,0.5-2.59c0.03-4.93,0.08-9.86-0.02-14.79c-0.03-1.72,0.57-2.15,2.12-2.14 c10.7,0.05,21.39,0.16,32.09-0.04c4.05-0.07,8.08-0.01,12.13,0.18c10.28,0.5,19.91,8.5,22,18.56c1.13,5.47,1.3,10.91-0.12,16.34 c-0.34,1.3-0.95,2.46-1.68,3.57c-0.26,0.4-0.93,0.81-0.51,1.35c0.5,0.65,1.37,0.76,2.12,0.82c0.82,0.07,0.78-0.74,0.86-1.3 c0.23-1.64,0.46-3.27,0.81-4.9c2.01-9.38,6.6-17.17,13.16-23.9c5.96-6.12,12.87-10.54,20.97-12.75c6.97-1.9,14.08-2.24,21.22-0.82 c7.65,1.52,14.55,4.69,20.58,9.84c0.39,0.33,0.82,0.83,1.34,0.55c0.43-0.23,0.27-0.84,0.28-1.29c0.02-1.13,0.01-2.26,0.01-3.4 c0-3.11,0-3.11,3.1-3.11c7.47,0,14.95,0,22.42,0c15.33,0,30.67,0,46,0c0.84,0,1.67-0.05,2.51-0.07 C547.25,391.71,547.25,401.17,547.25,410.63z M438.91,449.18c14.5,0.01,23.41-8.86,23.42-20.1c0-3.45,0-3.45-3.33-2.67 c-0.75,0.18-1.5,0.37-2.24,0.59c-5.74,1.69-11.49,3.38-17.23,5.1c-1.41,0.42-1.64,0.05-1.27-1.4c1.77-7,3.38-14.04,5.18-21.02 c0.45-1.76,0.1-2.27-1.61-2.24c-6.97,0.15-12.33,3.49-16.28,9.14c-4.53,6.48-5.07,13.66-1.62,20.75 C427.62,444.93,433.76,449.05,438.91,449.18z M284.84,449.19c11.22,0.34,19.98-9.41,20.14-20.02c0.05-3.56,0.03-3.56-3.37-2.72 c-0.56,0.14-1.13,0.22-1.69,0.38c-5.93,1.74-11.86,3.47-17.77,5.26c-1.44,0.44-1.75-0.13-1.43-1.43c0.66-2.63,1.34-5.26,2.02-7.88 c1.1-4.22,1.93-8.51,3.16-12.7c0.69-2.34,0.34-2.76-2.04-2.59c-7.98,0.55-13.95,4.64-17.4,11.96 C259.91,433.37,269.82,449.2,284.84,449.19z M187.18,421.31c0,3.06,0.06,6.12-0.03,9.18c-0.05,1.64,0.5,2.24,2.11,2.21 c4.57-0.08,9.14,0.01,13.71-0.03c6.23-0.06,10.19-3.61,11.22-9.96c1-6.15-3.63-12.1-9.68-12.24c-5.21-0.12-10.43,0.01-15.64-0.05 c-1.41-0.02-1.75,0.6-1.73,1.91C187.21,415.32,187.18,418.31,187.18,421.31z M364.18,438.13c-3.66,0-6.75,0.01-9.84,0 c-1.15,0-2.02,0.21-2,1.73c0.04,3.73,0.03,7.46,0.01,11.19c-0.01,1.09,0.46,1.62,1.5,1.6c6.88-0.11,13.78,0.48,20.64-0.39 c3.08-0.39,5.54-3.49,5.62-6.88c0.08-3.35-2.32-6.35-5.5-6.92C370.95,437.79,367.27,438.33,364.18,438.13z M360.34,403.29 c0-0.01,0-0.02,0-0.03c-2.06,0-4.11,0.05-6.17-0.02c-1.3-0.05-1.87,0.4-1.85,1.81c0.06,3.39,0.06,6.77,0,10.16 c-0.03,1.48,0.54,1.98,1.94,1.95c3.4-0.07,6.81-0.07,10.21,0c1.65,0.03,3.15-0.36,4.62-1.08c2.72-1.34,4.07-4.14,3.53-7.42 c-0.46-2.76-3.16-5.25-5.92-5.35C364.59,403.23,362.46,403.29,360.34,403.29z" style="fill: rgb(238, 103, 6);"/>
    <path class="st0" d="M101.83,424.65c0,6.93-0.06,13.85,0.04,20.78c0.03,1.97-0.61,2.53-2.44,2.45c-3.09-0.13-6.18-0.08-9.27-0.02 c-1.48,0.03-2.04-0.53-2.02-2.1c0.07-5.86,0.03-11.72,0.01-17.58c0-0.56,0.31-1.36-0.35-1.61c-0.77-0.3-1.06,0.57-1.42,1.07 c-2.26,3.06-4.57,6.1-6.73,9.24c-0.94,1.38-1.49,1.04-2.27-0.04c-2.29-3.2-4.62-6.37-6.93-9.56c-0.38-0.52-0.75-1.34-1.39-1.17 c-0.76,0.2-0.48,1.13-0.48,1.75c-0.02,5.86-0.07,11.72,0.03,17.58c0.03,1.79-0.45,2.53-2.25,2.47c-3.15-0.11-6.31-0.07-9.47-0.03 c-1.49,0.02-2.01-0.59-2-2.15c0.05-14.05,0.04-28.1,0.01-42.15c0-1.46,0.44-2,1.89-1.97c3.48,0.08,6.96,0.06,10.43,0 c1.09-0.02,1.78,0.37,2.42,1.26c2.46,3.41,5.02,6.75,7.47,10.16c0.95,1.32,1.64,1.57,2.7,0.08c2.36-3.32,4.87-6.52,7.23-9.84 c0.85-1.19,1.76-1.72,3.21-1.67c3.15,0.11,6.32,0.13,9.47,0c1.76-0.08,2.17,0.58,2.14,2.3 C101.77,410.8,101.82,417.73,101.83,424.65z" style="fill: rgb(238, 103, 6);"/>
    <path class="st0" d="M120.04,437.89c1.23-5.02-1.15-10-4.18-14.97c-3.93-6.45-7.45-13.17-11.16-19.76c-0.57-1-0.4-1.52,0.74-1.52 c4.44-0.02,8.88-0.01,13.32-0.01c0.91,0,1.31,0.6,1.72,1.35c1.62,2.93,3.3,5.83,4.96,8.74c1.2,2.1,1.5,2.1,2.71-0.04 c1.59-2.81,3.21-5.6,4.73-8.44c0.64-1.19,1.44-1.67,2.78-1.64c3.99,0.08,7.98,0.01,11.97,0.05c1.81,0.02,1.9,0.27,0.98,1.92 c-4.68,8.31-9.35,16.64-14.04,24.95c-0.74,1.3-1.04,2.66-1.02,4.18c0.06,4.32-0.03,8.65,0.05,12.97c0.03,1.65-0.53,2.26-2.11,2.22 c-3.15-0.08-6.31-0.07-9.46,0c-1.51,0.03-2.07-0.6-2.02-2.13C120.1,443.47,120.04,441.21,120.04,437.89z" style="fill: rgb(238, 103, 6);"/>
    <path class="st0" d="M94.41,452.34c12.37,0,24.74,0.03,37.1-0.03c1.57-0.01,2.24,0.41,2.1,2.11c-0.12,1.45-0.12,2.94-0.01,4.39 c0.13,1.72-0.6,2.29-2.14,2.1c-0.38-0.05-0.77-0.01-1.16-0.01c-24.22,0-48.44,0-72.66,0c-2.73,0-2.79,0-2.71-2.83 c0.06-1.83-0.82-4.16,0.42-5.38c1.13-1.11,3.32-0.34,5.04-0.34C71.73,452.32,83.07,452.34,94.41,452.34z" style="fill: rgb(238, 103, 6);"/>
    <path class="st0" d="M390.7,500.56c-3.15,0-6.31,0.01-9.46-0.01c-0.67,0-1.63,0.2-1.6-0.88c0.03-0.98,0.96-0.89,1.66-0.89 c3.93-0.01,7.85-0.01,11.78-0.01c2.25,0,4.51,0.01,6.76,0c1.26,0,2.43-0.3,2.43-1.89c0-1.58-1.11-1.89-2.4-1.88 c-4.96,0.01-9.91,0.02-14.87,0c-0.9,0-1.81-0.01-2.69-0.18c-1.58-0.31-2.39-1.48-2.72-3.01c-0.31-1.45,0.26-2.6,1.35-3.5 c0.69-0.56,1.52-0.72,2.36-0.72c6.37-0.01,12.74-0.01,19.12,0c0.69,0,1.64-0.1,1.65,0.88c0.01,1-0.94,0.88-1.63,0.88 c-6.11,0-12.23,0.02-18.34-0.01c-1.37-0.01-2.61,0.31-2.6,1.92c0.01,1.61,1.28,1.95,2.63,1.88c0.58-0.03,1.16,0,1.74,0 c4.51,0,9.01-0.01,13.52,0c1.02,0,2.1-0.06,2.99,0.55c1.4,0.96,2.11,2.3,1.68,4.08c-0.45,1.88-1.68,2.76-3.5,2.78 C397.26,500.58,393.98,500.56,390.7,500.56z" style="fill: rgb(238, 103, 6);"/>
    <path class="st0" d="M477.64,500.56c-2.06,0-4.12,0.04-6.17-0.01c-3.58-0.09-6.14-2.67-6.23-6.21c-0.1-3.67,2.34-6.58,5.95-6.71 c4.3-0.16,8.62-0.16,12.92-0.01c3.34,0.11,5.82,3.07,5.79,6.51c-0.03,3.52-2.65,6.33-6.08,6.42 C481.76,500.61,479.7,500.56,477.64,500.56z M477.53,498.78c0-0.01,0-0.02,0-0.03c1.99,0,3.98,0.08,5.97-0.02 c2.82-0.15,4.4-1.91,4.38-4.69c-0.02-2.7-1.74-4.61-4.45-4.67c-3.85-0.09-7.7-0.08-11.55-0.01c-2.89,0.06-4.82,2.12-4.76,4.87 c0.06,2.71,1.89,4.46,4.83,4.54C473.8,498.82,475.67,498.78,477.53,498.78z" style="fill: rgb(238, 103, 6);"/>
    <path class="st0" d="M505.52,500.56c-1.99,0-3.99,0.04-5.98-0.01c-3.46-0.09-5.99-2.57-6.06-5.87c-0.1-4.1,1.99-6.87,5.71-7.03 c4.3-0.19,8.61-0.18,12.91-0.01c3.64,0.14,5.95,2.99,5.84,6.76c-0.1,3.57-2.64,6.09-6.25,6.17 C509.63,500.6,507.58,500.56,505.52,500.56z M505.76,489.35c-1.86,0-3.73-0.04-5.59,0.01c-2.86,0.08-4.94,2.09-4.98,4.73 c-0.03,2.61,1.86,4.59,4.75,4.66c3.85,0.1,7.72,0.09,11.57-0.02c2.89-0.08,4.64-2,4.62-4.74c-0.03-2.68-1.92-4.56-4.77-4.64 C509.49,489.3,507.62,489.34,505.76,489.35z" style="fill: rgb(238, 103, 6);"/>
    <path class="st0" d="M422.11,500.56c-2.64,0-5.28,0.02-7.92-0.01c-3.77-0.04-6.38-2.55-6.44-6.16c-0.07-3.95,2.38-6.72,6.24-6.79 c5.53-0.09,11.07-0.03,16.61-0.02c0.68,0,1.62-0.13,1.58,0.92c-0.04,1.04-0.99,0.83-1.66,0.83c-5.28,0.01-10.56,0-15.84,0.01 c-1.83,0-3.46,0.52-4.42,2.27c-1.88,3.43,0.14,7.07,4.03,7.13c5.15,0.08,10.3,0,15.45,0.04c0.87,0.01,2.35-0.5,2.4,0.84 c0.05,1.49-1.46,0.87-2.3,0.9C427.27,500.61,424.69,500.56,422.11,500.56z" style="fill: rgb(238, 103, 6);"/>
    <path class="st0" d="M436.65,494.14c0-1.8-0.01-3.59,0.01-5.39c0-0.6-0.01-1.29,0.83-1.28c0.76,0,0.91,0.61,0.98,1.24 c0.02,0.2,0.01,0.4,0.02,0.6c0.16,3.82,0.16,3.82,3.82,3.82c4.95,0,9.91-0.09,14.86,0.04c1.92,0.05,2.53-0.64,2.28-2.5 c-0.09-0.72-0.02-1.46,0-2.19c0.01-0.49,0.14-0.96,0.71-1.01c0.66-0.06,0.95,0.4,0.97,0.98c0.05,1.53,0.05,3.06,0.05,4.59 c0,2.13,0,4.26-0.02,6.39c-0.01,0.61-0.07,1.3-0.84,1.32c-0.79,0.03-0.86-0.63-0.87-1.26c0-0.2,0-0.4-0.01-0.6 c-0.08-3.87-0.08-3.87-3.77-3.87c-5.15,0-10.3,0.04-15.44-0.03c-1.34-0.02-1.88,0.4-1.75,1.8c0.08,0.92,0.03,1.86-0.01,2.79 c-0.03,0.65-0.28,1.22-1.04,1.14c-0.63-0.07-0.77-0.61-0.77-1.19C436.64,497.73,436.64,495.94,436.65,494.14z" style="fill: rgb(238, 103, 6);"/>
    <path class="st0" d="M534.33,500.56c-3.41,0-6.82-0.06-10.23,0.03c-1.4,0.03-1.97-0.39-1.94-1.9c0.08-3.26,0.02-6.52,0.03-9.77 c0-0.68-0.02-1.46,0.89-1.46c0.93,0,0.86,0.81,0.87,1.47c0.01,2.66,0.09,5.32-0.03,7.98c-0.07,1.54,0.49,1.91,1.89,1.9 c5.92-0.06,11.83-0.03,17.75-0.02c0.51,0,1.03-0.02,1.54,0.01c0.61,0.04,1.41-0.09,1.43,0.89c0.02,1.02-0.78,0.88-1.4,0.88 C541.53,500.57,537.93,500.56,534.33,500.56z" style="fill: rgb(238, 103, 6);"/>
  </g>
</svg>